<?xml version="1.0" standalone="no"?>
<!DOCTYPE svg PUBLIC "-//W3C//DTD SVG 20010904//EN"
 "http://www.w3.org/TR/2001/REC-SVG-20010904/DTD/svg10.dtd">
<svg version="1.0" xmlns="http://www.w3.org/2000/svg"
 width="700.000000pt" height="700.000000pt" viewBox="0 0 700.000000 700.000000"
 preserveAspectRatio="xMidYMid meet">
<metadata>
Created by potrace 1.14, written by Peter Selinger 2001-2017
</metadata>
<g transform="translate(0.000000,700.000000) scale(0.100000,-0.100000)"
fill="#000000" stroke="none">
<path d="M3005 6596 c-122 -38 -219 -129 -260 -246 -19 -51 -20 -84 -21 -509
-1 -340 2 -465 12 -496 44 -149 164 -257 309 -282 58 -10 873 -9 925 1 109 21
221 113 273 225 l31 66 2 453 c1 487 -2 524 -49 605 -53 89 -133 151 -236 183
-63 19 -924 19 -986 0z"/>
<path d="M701 5827 c-213 -19 -413 -134 -559 -322 -34 -44 -98 -180 -119 -255
-17 -62 -18 -162 -20 -2120 -2 -1949 -1 -2059 16 -2130 71 -296 278 -509 571
-586 l85 -23 2820 0 c3036 1 2875 -2 3008 50 137 54 290 178 372 304 36 54 91
184 112 260 12 45 14 4108 2 4179 -55 328 -337 602 -663 643 -71 8 -1644 9
-1653 0 -4 -4 -8 -153 -8 -330 -1 -177 -5 -340 -9 -362 -28 -144 -134 -297
-265 -379 -56 -36 -161 -75 -220 -83 -57 -7 -1294 -8 -1336 -1 -230 41 -410
197 -477 413 -21 66 -22 90 -22 407 -1 331 -1 338 -21 339 -114 5 -1551 2
-1614 -4z m2971 -1959 c365 -85 615 -408 603 -782 -4 -99 -9 -130 -41 -226
-104 -309 -389 -517 -719 -524 -438 -9 -798 348 -790 784 3 106 7 137 35 227
17 56 27 80 52 123 4 8 12 24 17 35 14 33 90 127 140 173 116 107 280 186 426
205 74 9 205 2 277 -15z m664 -1936 c226 -39 421 -214 499 -447 9 -27 19 -84
22 -127 7 -93 -11 -144 -60 -173 -30 -18 -81 -19 -1298 -19 -1189 0 -1268 1
-1293 18 -52 33 -67 72 -61 156 8 119 38 208 102 309 75 117 211 223 338 263
29 9 44 12 129 27 67 11 1554 5 1622 -7z"/>
</g>
</svg>
